<svg xmlns="http://www.w3.org/2000/svg" xml:space="preserve" fill-rule="evenodd" stroke-linejoin="round" stroke-miterlimit="2" clip-rule="evenodd" viewBox="0 0 4000 4000">
  <clipPath id="a">
    <path d="M0 0h4000v4000H0z"/>
  </clipPath>
  <g clip-path="url(#a)">
    <path fill="#1e1e1e" d="M642.6 2958.8 2000 4000l1357.4-1041.2V0H642.6v2958.8Z"/>
    <path fill="#a8a8a8" d="M2071.8 1715.8h-262.2c28.6 71.4 81.2 143.8 160.5 223.3 251 251.4 63.9 686.8 63.9 686.8s348.2-305.9 179.8-606.2c-66.2-118.3-122.4-217.9-142-304Z"/>
    <path fill="#3b3b3b" d="M2248 2467.3s52.3-215.1-25.5-341.4c-38.9-63-136.7-184-213-308.5 59.6-97.4 106-197 100.6-272.8-5.3-74.9-55-128.5-110.1-165.3a399.3 399.3 0 0 1 129-68.8c-.3 1.6-6.6 3-6.8 4.4-2.7 11.2 52.6 47.4 57 58.7 20 49.8 38.8 100.1 94.3 100.1 55.6 0 100.6-55.4 100.6-123.7 0-38-14-72.2-36-94.9 12.9-11.9 26.5-23.8 41.1-35.7 248.6-203.1 161.3-645.1-80.4-699.8 0 0 4-.2 11-.2 37.3 0 159.7 6.6 237 89a269.3 269.3 0 0 1 71.7 190.2c13.8-24.3 22-63.6 6.4-114.4 22.3 28 42.6 60.7 59.8 99 124.6 277.4-151.2 566.8-151.2 566.8s467.8-361.8 172.3-650c0 0 216.6 95 216.6 304.5 0 57.1-23 140.1-107 208.8 0 0 66.6-17 113.4-89.9 1.2 31.2-4.7 78.6-50 140.8-112.8 155.1-111.8 214.5-67 214.5a81 81 0 0 0 23.1-4c72.5-19.8 179.1-94.3 233.7-182.9-1 45.4-10 109-44 173.6-40.5 77.4-107.5 136.2-268.8 175.7 0 22.1 107.5 23.3 149.6-17.8 10.5 73-274.9 257-307.3 242.1-2.8 26.8 327.6-72 433-186 6.9-16.8 12.4-31.9 16.7-44.7l.4-1 .5-1.5c-22 66.1-76.8 195.9-193.4 310.2-60.3 52.1-174.7 119.5-362.7 119.5h-6s43.3 13.7 119.1 13.7c20.5 0 43.3-1 68.2-3.6-83 41.8-183 72.3-303 83.1-22.5 169-122.8 312.2-122.8 312.2Zm588.1-692.1.6-.3-.6.3Zm58.4-34.6 8-5.2-.8.5a1008 1008 0 0 1-7.2 4.7Zm19-12.6c.2 0 .4-.2.5-.3l-.4.3Zm13-9h.1-.1Zm.5-.3 1.1-.8-1.1.8Zm11.3-8.1 1.7-1.3-.6.5-1 .8Zm12.3-9.2a171 171 0 0 0 .9-.7l-.9.7Zm21-16.7 4.9-4-1.5 1.2-3.5 2.8Zm13.8-11.8 2-1.8-1.1 1-.9.8Zm10.7-9.6 1.3-1.3-.2.3-1.1 1Zm8.6-8.2 4.1-4-1 1.1-3 3Zm45.1-26.3.2-.6.7-2.1-.9 2.7Zm-18.2-1.8 6.4-7.5-1.2 1.5-5.2 6Zm22.2-10.8.4-1.6-.4 1.6Zm-1-15.7c3-4 5.7-8 8.4-12l.1-.1c-2.5 3.7-5 7.4-7.7 11l-.8 1.1Zm-108.7-195c51.4-46.7 100.2-110.9 120.2-179.2-20 68.4-68.8 132.6-120.2 179.1Zm124.5-131.9v-.6.6Zm-.2-6.3v-.9.9Z"/>
    <path fill="url(#b)" d="M262.8 267c24.4-26.2 29.4-47.6 18.7-74.6-2.7-3-4.4-7.3-6.2-11.8-.7-1.7-8.9-7.1-8.5-8.8 0-.2 1-.5 1-.7 0 0-26.3 7.5-31.8 29.4l7 16.6c2.5 6 2.6 12.6 1 19.8a279.9 279.9 0 0 0 18.8 30.1Z" transform="matrix(7 0 0 7 332.9 176.1)"/>
    <path fill="#8c8c8c" d="M1949 1582.2c-91.6-220.3-204.4-411.5-47.8-582.3 0 0-18.3-67.1-155.6-32.7 0 0 74.5-59.2 217.8-82 200.7-31.8 326 128.7 326 201.8 0 0-142.3-85.3-202.6-3.2-45.6 61.8 57.7 202.6 94.3 275.9 108.4 217.1 80.3 374.5-124.1 579.4-251 251.4-63.8 686.8-63.8 686.8s-348.3-305.9-180-606.2c103.8-185 182.8-324.4 135.8-437.5Z"/>
    <path fill="#aaa" d="M1771 2467.3s-100.4-143.2-122.9-312.2c-120-10.8-220-41.3-303-83 25 2.5 47.8 3.5 68.2 3.5 75.8 0 119-13.8 119-13.8h-5.8c-188 0-302.4-67.3-362.8-119.4-157.2-154.1-202-336.3-205.7-352.9l.2 1 .2.6.1.8.3 1.2.1.4.4 1.3.4 1.5.3 1.3.5 1.9a192.5 192.5 0 0 0 1.6 5.7l.6 2.4.9 3 .7 2.2 1.6 5.3.8 2.9 1.2 3.5 1.2 3.7.6 1.9 1.2 3.6.3 1c4.4 12.8 9.9 28 16.8 44.8 88 92.4 409.8 196.6 432.9 186-28.5-3.7-300-190.8-307.3-242.2 43 29.3 150.8 35.1 149.6 17.8-161.3-39.5-228.3-98.3-268.9-175.7a395 395 0 0 1-39.8-237.8l-.1.6-.2.9-.1 1-.2 1.1-.2 1.4-.2 1.3-.2 1.7-.2 1.5-.3 2.1-.2 1.6-.3 2.5c0 .6 0 1.2-.2 1.8l-.2 2.7-.2 2-.2 3-.2 2.3-.2 3.2-.2 2.4-.2 3.6v2.5l-.2 3.9v2.6l-.1 4.1v14.4c54.6 88.5 161.1 163 233.5 182.9 8.7 2.6 16.6 4 23.4 4 44.7 0 45.8-59.4-67.1-214.5-45.3-62.2-51.1-109.6-50-140.8 46.8 72.9 113.4 90 113.4 90-83.9-68.8-107-151.8-107-208.9 0-209.4 216.7-304.5 216.7-304.5-295.6 288.2 172.3 650 172.3 650s-275.8-289.4-151.3-566.8c17.2-38.3 37.6-71 59.8-99-15.5 50.8-7.4 90 6.5 114.4-2.5-91 40.5-157 71.6-190.3 77.4-82.3 199.7-88.9 237-88.9 7 0 11 .2 11 .2-241.6 54.7-329 496.7-80.4 699.8 14.6 11.9 28.3 23.8 41.2 35.7-22 22.7-36 56.8-36 95 0 68.2 45 123.6 100.5 123.6 55.6 0 100.6-55.4 100.6-123.7 0-12.2-1.4-24-4.1-35l-.6-4.5s84.3 19.2 158.6 68.8c55.2 36.8 104.8 90.4 110.1 165.3 5.4 75.8-41 175.4-100.6 272.8-76.2 124.5-174 245.5-213 308.5-77.8 126.3-25.5 341.4-25.5 341.4Zm-811.8-876.8Zm-.1-.2-1-1.4 1 1.4Zm-1.1-.8-.3-1.1.2.7v.4Zm.1-.6v-.2.2Zm-1.6-357Zm-.1-.3Zm-.2-.3Zm0-.4Zm-.2-.4Zm-.4-1.3Zm-.1-.3v-.2.2Zm-.1-.4v-.1.1Zm-.1-.3v-.2.2Zm-.1-.4Zm-.7-.2.2-.9v.2l-.2.7Zm.6-.2v-.2.2Zm-.1-.3-.1-.3v.3Zm-.1-.4-.2-.4.2.4Z"/>
    <path fill="url(#c)" d="M265 206.4c-1.9-26.5-40-35.3-40-35.3v.3c10.3 4.3 30.6 15.4 32 35 1.8 26-31.4 68.8-41.8 85.7-11.6 19-.8 53.5-.8 53.5s-7.8-32.4 3.8-51.5c10.4-17 48.6-61.6 46.8-87.7Z" transform="matrix(7 0 0 7 332.9 176.1)"/>
    <path fill="url(#d)" d="m188.9 155.4 6.1 5.4a20.7 20.7 0 0 0-5.4 14.3c0 10 10.6 19.8 18.5 20.4-6.7-1.5-11.9-8.4-12.4-17V177c0-5.8 2-11 5.3-14.3l-6.1-5.4c-37-30.7-24-97.3 12-105.6 0 0-8.7.4-17.2 5.2-28.9 16.3-34.6 70.4-.8 98.4Z" transform="matrix(7 0 0 7 332.9 176.1)"/>
    <path fill="url(#e)" d="m171.9 177-1.6-1.7 1.6 1.8Z" transform="matrix(7 0 0 7 332.9 176.1)"/>
    <path fill="url(#f)" d="M171.9 177s-8-6.2-17-16.2l-.7-.9-.2-.1-1.3-1.6-.2-.3-.7-.8-.3-.4a141.1 141.1 0 0 1-4-5l-.5-.8a97.8 97.8 0 0 1-3.2-4.5l-.4-.7a74.7 74.7 0 0 1-2-3l-.2-.5a85.4 85.4 0 0 1-1.8-3.2l-.2-.5a85.3 85.3 0 0 1-1.7-3.4l-.2-.3-.6-1.4-.3-.5-.6-1.7-.2-.3-.5-1.5-.2-.4-.6-1.7-.1-.4-.5-1.5-.1-.4-.5-1.8v-.4l-.4-1.5-.1-.4-.3-1.8-.1-.4-.2-1.6v-.3c-.2-.6-.2-1.3-.3-1.9v-2.3l-.1-1.9v-2.3a41.2 41.2 0 0 1 .6-4v-.3l.4-1.8v-.5c.2-.5.4-1 .5-1.7v-.2a40 40 0 0 1 1.5-4v-.2l.9-1.9.2-.4.9-1.8v-.1l1.1-2 .3-.4 1.1-1.7.1-.1 1.4-1.9.3-.4 1.4-1.8a59 59 0 0 1 3.9-4.2s-7.8 3.5-15.7 10.7C107.7 138.5 172 177 172 177Z" transform="matrix(7 0 0 7 332.9 176.1)"/>
    <path fill="url(#g)" d="m311.1 155.4-6.1 5.4c3.3 3.4 5.4 8.5 5.4 14.3 0 10-10.6 19.8-18.5 20.4 6.7-1.5 11.9-8.4 12.4-17V177c0-5.8-2-11-5.3-14.3l6.1-5.4c37-30.7 24-97.3-12-105.6 0 0 8.7.4 17.2 5.2 28.9 16.3 34.6 70.4.8 98.4Z" transform="matrix(7 0 0 7 332.9 176.1)"/>
    <path fill="url(#h)" d="m328.1 177 1.6-1.7-1.6 1.8Z" transform="matrix(7 0 0 7 332.9 176.1)"/>
    <path fill="url(#i)" d="M328.1 177s8-6.2 17-16.2l.7-.9.2-.1 1.3-1.6.2-.3a114.4 114.4 0 0 0 3.1-3.8l.5-.6.9-1.2.5-.7.6-.7a115 115 0 0 0 5.4-8.2l.3-.5.7-1.2.3-.5.8-1.5.2-.5a96 96 0 0 0 1.7-3.4l.2-.3.6-1.4.3-.5.7-1.7.1-.3.5-1.5.2-.4.6-1.7.1-.4.5-1.5.1-.4.5-1.8v-.4l.4-1.5.1-.4.4-1.8v-.4l.2-1.6v-.3c.2-.6.2-1.3.3-1.9v-2l.1-.3v-4.2a41.2 41.2 0 0 0-.6-4v-.3l-.4-1.8v-.5a39 39 0 0 0-.5-1.7v-.2l-.7-1.9-.1-.4-.7-1.7v-.2l-.9-1.9-.2-.4a47 47 0 0 0-.9-1.8v-.1a46.4 46.4 0 0 0-2.5-4.1l-.1-.1-1.4-1.9-.3-.4-1.4-1.8-1.7-2-.4-.4-1.8-1.8s7.8 3.5 15.7 10.7C392.3 138.5 328 177 328 177Z" transform="matrix(7 0 0 7 332.9 176.1)"/>
    <g fill="#d3d3d3" fill-rule="nonzero">
      <path d="m2397.3 3567.5 29.8-22.7-6.6-23.9 39.5-30 21.3 12.6 30.4-23.2-122-69.8-27.3 20.8 35 136.2Zm14.7-75-10.6-37.8 33.6 20.4-23 17.4ZM2561.7 3445c24.8-18.9 31.9-43.9 16-64.8l-.2-.3c-14.6-19.1-35-15.6-62.4-2.8-16.7 7.6-21.7 8.2-25.3 3.6l-.2-.3c-2.8-3.7-1.7-9.2 5.2-14.4 9-6.9 22-11.2 36.3-11.7l-1-30.8a81 81 0 0 0-52.5 18.4c-24.5 18.7-29.1 44-14.7 62.9l.3.3c16 21 37.5 14.4 63 2.8 16.4-7.4 21.5-7.6 24.7-3.4l.3.3c3.3 4.4 1.2 10.1-6.4 16a66.2 66.2 0 0 1-42.5 13l-1.4 30.8a89.8 89.8 0 0 0 60.8-19.6ZM2615.4 3401.3l28.4-21.6-29.6-38.8 36.4-27.8 29.6 38.9 28.3-21.6-77.9-102.3-28.3 21.6 29.1 38.3-36.4 27.7-29.1-38.3-28.4 21.6 78 102.3ZM2726.6 3316.6l52.8-40.2c24.4-18.6 30.6-40.1 17.2-57.7l-.2-.3c-10.6-13.8-23.8-14.8-39.4-9.5 6.1-10.8 7.5-23-1.5-34.8l-.3-.3c-5.3-7-11.9-10.5-19.1-11.5-10.6-1.4-22 2.3-35 12l-52.4 40 78 102.3Zm-19.2-82.5-13.7-18 18.4-14c8.5-6.5 15.3-6.6 19.5-1l.3.2c4.5 6 2 12.6-6.7 19.2l-17.8 13.6Zm29.5 38.7-14.4-18.9 21.6-16.4c9.5-7.3 16.7-7 21-1.4l.2.3c4.5 6 2.1 13.1-6.5 19.7l-22 16.7ZM2753.8 3134.3l28.5-21.7 78 102.3-28.6 21.7zM2878.9 3200.6l28.3-21.6-23.6-31 12.4-9.4 44.2 15.3 32.8-25-51.6-17c8.6-15 9-31.8-2.9-47.4l-.2-.3a39.9 39.9 0 0 0-27.2-17c-12.2-1.7-26.1 2.4-41.8 14.3l-48.3 36.9 77.9 102.2Zm-12.2-74.7-18.7-24.6 18.6-14.1c9.5-7.2 18.4-7.6 24.5.4l.3.3c5.6 7.5 3.6 16.4-6 23.7l-18.7 14.3ZM2984 3120.6l38.8-29.6c36.8-28 41.6-66.3 19.1-95.8l-.2-.3c-22.5-29.5-59.7-34.4-96.2-6.6l-39.5 30 78 102.3Zm9.1-46.7-39.6-52 11.5-8.8c17-13 35.5-12 48 4.4l.2.3c12.5 16.5 8.4 34.4-8.5 47.3l-11.6 8.8ZM3135.7 3007.7c24.9-18.9 32-43.9 16-64.8l-.2-.3c-14.6-19.1-35-15.6-62.4-2.8-16.6 7.6-21.7 8.2-25.3 3.6l-.2-.3c-2.8-3.7-1.6-9.2 5.2-14.4 9.1-6.9 22-11.2 36.4-11.7l-1.1-30.8a81 81 0 0 0-52.4 18.4c-24.6 18.7-29.2 44-14.7 62.9l.2.3c16 21 37.5 14.4 63 2.8 16.4-7.4 21.5-7.6 24.8-3.4l.2.3c3.3 4.4 1.2 10.1-6.4 16a66.2 66.2 0 0 1-42.5 13l-1.4 30.8a89.8 89.8 0 0 0 60.8-19.6ZM802.4 2934.9l28.3 21.5 27.9-36.5 48.3 36.9 17.9-23.5-48.3-36.9 13.2-17.3 53.4 40.7 19-24.8-81.8-62.3-77.9 102.2ZM946.9 3048.1a67.3 67.3 0 0 0 95.6-11l.3-.4c22.3-29.3 16.9-70.6-14.7-94.6a67.3 67.3 0 0 0-95.7 11l-.2.4c-22.3 29.3-16.9 70.6 14.7 94.6Zm19.7-25.3c-15.5-11.8-16.3-32.8-5.1-47.5l.2-.3c11.3-14.7 31.2-19.4 46.7-7.6 15.6 11.9 16.5 32.9 5.2 47.6l-.2.3c-11.2 14.7-31.2 19.4-46.8 7.5ZM1018.4 3099.4l28.3 21.5 23.5-31 12.5 9.5-3 46.7 32.7 24.9 2.7-54.2c16.8 4.3 33 .2 45-15.4l.2-.3a39.9 39.9 0 0 0 9-30.7c-1.5-12.2-9.2-24.5-24.8-36.4l-48.3-36.8-77.8 102.2Zm68.8-31.6 18.6-24.5 18.6 14c9.5 7.3 12.2 15.9 6 23.9l-.1.3c-5.7 7.4-14.8 7.9-24.5.5l-18.6-14.2ZM1162.1 3211.7c24.9 18.9 50.8 19 66.7-1.9l.2-.2c14.6-19.2 5.8-37.9-13.8-60.9-11.7-14-13.7-18.7-10.1-23.4l.2-.3c2.8-3.6 8.4-4 15.2 1.2 9 7 16.6 18.2 21 32l29.4-9.3a80.9 80.9 0 0 0-31.7-45.6c-24.6-18.7-50-16.4-64.5 2.6l-.2.2c-16 21-4 40 14 61.5 11.4 13.8 13 18.7 9.8 23l-.2.2c-3.4 4.4-9.4 4-17-1.9a66.2 66.2 0 0 1-23.8-37.5l-30.1 6.8a89.7 89.7 0 0 0 35 53.5ZM1208.1 3244l29.8 22.6 21.2-12.7 39.4 30-6.4 24 30.4 23.1 34.9-136-27.3-20.8-122 69.7Zm76.1-5.8 33.7-20.2-10.7 37.7-23-17.5ZM1332.4 3338.6l28.3 21.6 20.1-26.5 19.2-3.6-3.2 57.5 34 26 4.4-88.8 72.1-14.4-33.6-25.6-66.7 14.6 31.6-41.4-28.4-21.6-77.8 102.2ZM1439 3419.8l82.9 63.1 18.3-24-54.9-41.9 12.4-16.2 49 37.4 17-22.3-49-37.4 11.8-15.5 54.2 41.3 18.3-24.1-82.2-62.6-77.8 102.2ZM1536.3 3494l28 21.3 42.8-56 1 89.3 24.7 18.9 77.9-102.2-28-21.4-41.2 54-.9-86-26.4-20.1-77.9 102.2Z"/>
    </g>
  </g>
  <defs>
    <linearGradient id="b" x1="0" x2="1" y1="0" y2="0" gradientTransform="matrix(0 -96 96 0 261.4 267)" gradientUnits="userSpaceOnUse">
      <stop offset="0" stop-color="#dd3826"/>
      <stop offset=".6" stop-color="#f47c27"/>
      <stop offset="1" stop-color="#faa741"/>
    </linearGradient>
    <linearGradient id="c" x1="0" x2="1" y1="0" y2="0" gradientTransform="matrix(0 -174 175 0 237.5 345.6)" gradientUnits="userSpaceOnUse">
      <stop offset="0" stop-color="#dd3826"/>
      <stop offset=".6" stop-color="#f47c27"/>
      <stop offset="1" stop-color="#faa741"/>
    </linearGradient>
    <linearGradient id="d" x1="0" x2="1" y1="0" y2="0" gradientTransform="matrix(0 -144 144 0 187 195.5)" gradientUnits="userSpaceOnUse">
      <stop offset="0" stop-color="#faa741"/>
      <stop offset=".7" stop-color="#f15a22"/>
      <stop offset="1" stop-color="#dd3826"/>
    </linearGradient>
    <linearGradient id="e" x1="0" x2="1" y1="0" y2="0" gradientTransform="matrix(0 -2 2 0 171 177)" gradientUnits="userSpaceOnUse">
      <stop offset="0" stop-color="#faa741"/>
      <stop offset=".7" stop-color="#f15a22"/>
      <stop offset="1" stop-color="#dd3826"/>
    </linearGradient>
    <linearGradient id="f" x1="0" x2="1" y1="0" y2="0" gradientTransform="matrix(0 -98 98 0 148.7 177)" gradientUnits="userSpaceOnUse">
      <stop offset="0" stop-color="#faa741"/>
      <stop offset=".7" stop-color="#f15a22"/>
      <stop offset="1" stop-color="#dd3826"/>
    </linearGradient>
    <linearGradient id="g" x1="0" x2="1" y1="0" y2="0" gradientTransform="matrix(0 144 144 0 313 195.5)" gradientUnits="userSpaceOnUse">
      <stop offset="0" stop-color="#faa741"/>
      <stop offset=".7" stop-color="#f15a22"/>
      <stop offset="1" stop-color="#dd3826"/>
    </linearGradient>
    <linearGradient id="h" x1="0" x2="1" y1="0" y2="0" gradientTransform="matrix(0 2 2 0 329 177)" gradientUnits="userSpaceOnUse">
      <stop offset="0" stop-color="#faa741"/>
      <stop offset=".7" stop-color="#f15a22"/>
      <stop offset="1" stop-color="#dd3826"/>
    </linearGradient>
    <linearGradient id="i" x1="0" x2="1" y1="0" y2="0" gradientTransform="matrix(0 98 98 0 351.3 177)" gradientUnits="userSpaceOnUse">
      <stop offset="0" stop-color="#faa741"/>
      <stop offset=".7" stop-color="#f15a22"/>
      <stop offset="1" stop-color="#dd3826"/>
    </linearGradient>
  </defs>
</svg>
